<svg xmlns="http://www.w3.org/2000/svg" viewBox="0 0 46 41" width="46" height="41">
	<style>
		tspan { white-space:pre }
		.shp0 { fill: #404040 } 
		.shp1 { display: none;fill: #1cad68 } 
		.shp2 { fill: #404040;stroke: #404040;stroke-width: 0.5 } 
	</style>
	<g id="Group_9771" style="display: none">
		<g id="like" style="display: none">
			<g id="Group_9758" style="display: none">
				<path id="Path_55" fill-rule="evenodd" class="shp0" d="M37.34 13.88C37.69 14.29 38.01 14.74 38.28 15.2C38.55 15.67 38.78 16.16 38.97 16.67C39.15 17.18 39.29 17.71 39.38 18.24C39.47 18.78 39.51 19.32 39.5 19.86C39.5 22.33 38.54 24.63 36.47 27.09C34.62 29.3 31.95 31.57 28.87 34.19C27.72 35.17 26.53 36.19 25.26 37.29L25.23 37.33C25.15 37.4 25.06 37.45 24.96 37.49C24.86 37.52 24.76 37.54 24.65 37.54C24.55 37.54 24.44 37.52 24.35 37.49C24.25 37.45 24.16 37.4 24.08 37.33L24.04 37.29C22.78 36.19 21.59 35.17 20.44 34.19C17.35 31.57 14.69 29.3 12.84 27.09C10.77 24.63 9.8 22.33 9.8 19.86C9.8 19.32 9.84 18.78 9.93 18.24C10.02 17.71 10.16 17.18 10.34 16.67C10.53 16.16 10.76 15.67 11.03 15.2C11.3 14.74 11.62 14.29 11.97 13.88C12.73 13 13.69 12.32 14.76 11.87C15.84 11.43 17 11.24 18.16 11.32C19.32 11.41 20.44 11.76 21.44 12.35C22.44 12.95 23.29 13.76 23.92 14.74C23.98 14.84 24.05 14.93 24.11 15.03C24.18 15.13 24.24 15.23 24.3 15.33C24.37 15.43 24.43 15.53 24.48 15.63C24.54 15.73 24.6 15.84 24.66 15.94C24.71 15.84 24.77 15.73 24.83 15.63C24.88 15.53 24.94 15.43 25.01 15.33C25.07 15.23 25.13 15.13 25.2 15.03C25.26 14.93 25.33 14.84 25.39 14.74C26.02 13.76 26.87 12.95 27.87 12.35C28.87 11.76 29.99 11.41 31.15 11.32C32.31 11.24 33.47 11.43 34.55 11.87C35.62 12.32 36.58 13 37.34 13.88ZM37.77 19.86C37.77 19.42 37.74 18.98 37.67 18.55C37.6 18.12 37.49 17.7 37.34 17.29C37.19 16.87 37.01 16.48 36.79 16.1C36.57 15.72 36.32 15.36 36.03 15.03C35.45 14.35 34.71 13.82 33.87 13.47C33.04 13.13 32.14 12.99 31.24 13.06C30.35 13.13 29.48 13.41 28.71 13.87C27.94 14.34 27.29 14.98 26.82 15.75C26.67 15.95 26.54 16.16 26.41 16.37C26.28 16.58 26.17 16.8 26.05 17.02C25.94 17.24 25.84 17.47 25.74 17.7C25.65 17.93 25.56 18.16 25.48 18.39C25.43 18.57 25.32 18.72 25.17 18.83C25.02 18.94 24.84 18.99 24.66 18.99C24.47 18.99 24.29 18.94 24.14 18.83C24 18.72 23.89 18.57 23.83 18.39C23.75 18.16 23.66 17.93 23.57 17.7C23.47 17.47 23.37 17.24 23.26 17.02C23.15 16.8 23.03 16.58 22.9 16.37C22.77 16.16 22.64 15.95 22.5 15.75C22.24 15.34 21.93 14.97 21.58 14.64C21.24 14.31 20.85 14.03 20.43 13.79C20.01 13.56 19.57 13.38 19.11 13.25C18.65 13.12 18.17 13.05 17.69 13.04C17.27 13.04 16.86 13.08 16.45 13.17C16.04 13.25 15.65 13.38 15.27 13.55C14.89 13.73 14.53 13.94 14.19 14.19C13.86 14.43 13.55 14.72 13.27 15.03C12.99 15.36 12.74 15.72 12.52 16.1C12.3 16.48 12.12 16.88 11.97 17.29C11.82 17.7 11.71 18.12 11.64 18.55C11.57 18.99 11.54 19.42 11.54 19.86C11.54 24.33 15.53 27.73 21.57 32.87C22.56 33.71 23.58 34.58 24.65 35.52C25.73 34.58 26.75 33.72 27.74 32.87C33.78 27.73 37.76 24.33 37.77 19.86Z" />
			</g>
		</g>
		<g id="Group_9768" style="display: none">
			<path id="Ellipse_11" class="shp1" d="M37.79 18.96C34.91 18.96 32.58 16.63 32.58 13.75C32.58 10.87 34.91 8.54 37.79 8.54C40.67 8.54 43 10.87 43 13.75C43 16.63 40.67 18.96 37.79 18.96Z" />
		</g>
	</g>
	<g id="Group_65">
		<g id="cart">
			<g id="Group_64">
				<g id="Group_63">
					<path id="Path_24" fill-rule="evenodd" class="shp0" d="M24.01 17.5C23.94 17.4 23.89 17.29 23.86 17.17C23.83 17.06 23.82 16.94 23.83 16.82C23.85 16.7 23.89 16.58 23.94 16.48C24 16.37 24.08 16.28 24.17 16.21L34.01 8.26C34.1 8.19 34.21 8.13 34.33 8.1C34.44 8.07 34.56 8.06 34.68 8.07C34.8 8.09 34.91 8.13 35.02 8.19C35.12 8.25 35.21 8.34 35.28 8.43L41.6 17.09C41.67 17.19 41.72 17.3 41.75 17.41C41.78 17.53 41.79 17.65 41.77 17.77C41.76 17.89 41.72 18 41.66 18.11C41.6 18.21 41.53 18.3 41.43 18.38L31.59 26.33C31.57 26.34 31.55 26.36 31.53 26.37C31.5 26.39 31.48 26.4 31.45 26.42C31.43 26.43 31.4 26.44 31.38 26.45C31.35 26.46 31.33 26.47 31.3 26.48C31.21 26.51 31.12 26.52 31.03 26.52C30.94 26.52 30.85 26.51 30.76 26.48C30.67 26.45 30.59 26.4 30.52 26.35C30.44 26.3 30.38 26.23 30.32 26.15L24.01 17.5ZM25.97 17.11L31.21 24.28L39.63 17.48L34.4 10.3L30.75 13.24L32.23 15.35C32.37 15.54 32.43 15.79 32.39 16.03C32.36 16.28 32.23 16.49 32.04 16.64C31.84 16.78 31.6 16.84 31.37 16.8C31.13 16.76 30.92 16.63 30.78 16.43L29.34 14.39L25.97 17.11Z" />
					<path id="Path_25" fill-rule="evenodd" class="shp0" d="M45.97 18.97C46 19.09 46.01 19.21 45.99 19.33C45.98 19.45 45.94 19.57 45.89 19.67C45.83 19.78 45.75 19.87 45.66 19.95L32.43 30.71C33.38 32.45 33.35 34.58 32.35 36.3C31.35 38.01 29.54 39.03 27.6 38.98C25.67 38.93 23.91 37.81 23 36.04C22.09 34.28 22.17 32.15 23.2 30.46L14.89 18.41C14.86 18.36 14.82 18.3 14.8 18.24C14.77 18.18 14.75 18.11 14.74 18.05C14.73 17.98 14.73 17.91 14.73 17.85C14.73 17.78 14.74 17.71 14.75 17.65L15.99 12.51L11.43 6.3L3.06 4.15C3.01 4.2 2.95 4.26 2.9 4.31C2.84 4.36 2.78 4.4 2.72 4.44C2.66 4.49 2.59 4.52 2.53 4.56C2.46 4.59 2.39 4.62 2.32 4.64C1.63 4.86 0.87 4.63 0.41 4.05C-0.05 3.47 -0.13 2.66 0.21 2C0.55 1.34 1.24 0.96 1.97 1.03C2.69 1.1 3.3 1.61 3.51 2.33C3.51 2.34 3.51 2.35 3.51 2.36L12.16 4.58C12.21 4.59 12.26 4.61 12.31 4.63C12.35 4.65 12.4 4.68 12.44 4.7C12.48 4.73 12.52 4.77 12.56 4.8C12.6 4.84 12.63 4.88 12.66 4.92L29.85 28.33C29.98 28.39 30.11 28.46 30.23 28.52C30.36 28.59 30.48 28.67 30.6 28.75C30.73 28.82 30.84 28.91 30.96 29C31.07 29.09 31.18 29.18 31.29 29.28L44.55 18.49C44.64 18.42 44.75 18.36 44.86 18.33C44.97 18.3 45.09 18.29 45.21 18.3C45.33 18.32 45.44 18.35 45.54 18.41C45.64 18.47 45.73 18.55 45.81 18.65C45.88 18.74 45.93 18.85 45.97 18.97ZM19.75 22.26L21.72 20.33L17.38 14.41L16.59 17.68L19.75 22.26ZM24.43 29.04C24.63 28.88 24.84 28.73 25.06 28.59C25.29 28.46 25.52 28.34 25.76 28.24C26 28.14 26.25 28.06 26.5 28C26.75 27.94 27.01 27.9 27.26 27.88L22.81 21.81L20.8 23.78L24.43 29.04ZM28.78 36.96C29.23 36.82 29.65 36.59 30.01 36.28C30.37 35.97 30.67 35.59 30.89 35.16C31.12 34.73 31.25 34.26 31.3 33.77C31.34 33.29 31.3 32.8 31.16 32.34C30.74 30.9 29.52 29.87 28.07 29.73C26.63 29.58 25.24 30.35 24.56 31.67C23.87 33 24.03 34.61 24.96 35.77C25.88 36.93 27.39 37.39 28.78 36.95L28.78 36.96Z" />
				</g>
			</g>
			<g id="Group_66">
				<g id="user2" style="display: none">
					<path id="Path_11" fill-rule="evenodd" class="shp2" d="M23.92 16.54C22.87 16.54 21.83 16.34 20.86 15.93C19.89 15.53 19 14.94 18.26 14.2C17.52 13.46 16.93 12.58 16.53 11.61C16.13 10.64 15.92 9.6 15.92 8.55C15.92 5.31 17.87 2.4 20.86 1.16C23.84 -0.08 27.28 0.6 29.57 2.89C31.86 5.18 32.54 8.62 31.3 11.61C30.07 14.59 27.15 16.54 23.92 16.54ZM23.92 2.25C23.09 2.25 22.27 2.41 21.5 2.73C20.74 3.04 20.04 3.51 19.46 4.09C18.87 4.68 18.41 5.37 18.09 6.13C17.78 6.9 17.61 7.72 17.61 8.55C17.61 11.1 19.15 13.39 21.5 14.37C23.86 15.35 26.57 14.81 28.37 13C30.18 11.2 30.71 8.49 29.74 6.13C28.76 3.78 26.47 2.24 23.92 2.24L23.92 2.25Z" />
					<path id="Path_12" fill-rule="evenodd" class="shp2" d="M24.12 19.36C26.08 19.36 28.01 19.74 29.82 20.49C31.62 21.24 33.26 22.33 34.64 23.71C36.03 25.1 37.12 26.74 37.87 28.54C38.62 30.35 39 32.28 39 34.23L39 37.65C39 37.76 38.98 37.87 38.94 37.97C38.89 38.08 38.83 38.17 38.75 38.25C38.67 38.33 38.58 38.39 38.48 38.43C38.37 38.47 38.26 38.5 38.15 38.5L10.1 38.5C9.99 38.5 9.88 38.47 9.77 38.43C9.67 38.39 9.58 38.33 9.5 38.25C9.42 38.17 9.36 38.08 9.31 37.97C9.27 37.87 9.25 37.76 9.25 37.65L9.25 34.23C9.25 32.28 9.63 30.35 10.38 28.54C11.13 26.74 12.22 25.1 13.6 23.71C14.99 22.33 16.63 21.24 18.43 20.49C20.24 19.74 22.17 19.36 24.12 19.36ZM37.31 34.24C37.34 30.72 35.96 27.34 33.49 24.84C31.01 22.35 27.64 20.94 24.13 20.94C20.61 20.94 17.24 22.35 14.77 24.84C12.29 27.34 10.92 30.72 10.95 34.24L10.95 36.8L37.3 36.8L37.31 34.24Z" />
				</g>
			</g>
		</g>
		<g id="Group_9776" style="display: none">
			<path id="Ellipse_11" class="shp1" d="M32.21 14.6C29.33 14.6 27 12.27 27 9.39C27 6.51 29.33 4.18 32.21 4.18C35.09 4.18 37.42 6.51 37.42 9.39C37.42 12.27 35.09 14.6 32.21 14.6Z" />
		</g>
	</g>
</svg>