<svg xmlns="http://www.w3.org/2000/svg" viewBox="0 0 46 41" width="46" height="41">
	<style>
		tspan { white-space:pre }
		.shp0 { fill: #404040 } 
		.shp1 { display: none;fill: #1cad68 } 
		.shp2 { fill: #404040;stroke: #404040;stroke-width: 0.5 } 
	</style>
	<g id="Group_9771" style="display: none">
		<g id="like" style="display: none">
			<g id="Group_9758" style="display: none">
				<path id="Path_55" fill-rule="evenodd" class="shp0" d="M37.34 13.88C37.69 14.29 38.01 14.74 38.28 15.2C38.55 15.67 38.78 16.16 38.97 16.67C39.15 17.18 39.29 17.71 39.38 18.24C39.47 18.78 39.51 19.32 39.5 19.86C39.5 22.33 38.54 24.63 36.47 27.09C34.62 29.3 31.95 31.57 28.87 34.19C27.72 35.17 26.53 36.19 25.26 37.29L25.23 37.33C25.15 37.4 25.06 37.45 24.96 37.49C24.86 37.52 24.76 37.54 24.65 37.54C24.55 37.54 24.44 37.52 24.35 37.49C24.25 37.45 24.16 37.4 24.08 37.33L24.04 37.29C22.78 36.19 21.59 35.17 20.44 34.19C17.35 31.57 14.69 29.3 12.84 27.09C10.77 24.63 9.8 22.33 9.8 19.86C9.8 19.32 9.84 18.78 9.93 18.24C10.02 17.71 10.16 17.18 10.34 16.67C10.53 16.16 10.76 15.67 11.03 15.2C11.3 14.74 11.62 14.29 11.97 13.88C12.73 13 13.69 12.32 14.76 11.87C15.84 11.43 17 11.24 18.16 11.32C19.32 11.41 20.44 11.76 21.44 12.35C22.44 12.95 23.29 13.76 23.92 14.74C23.98 14.84 24.05 14.93 24.11 15.03C24.18 15.13 24.24 15.23 24.3 15.33C24.37 15.43 24.43 15.53 24.48 15.63C24.54 15.73 24.6 15.84 24.66 15.94C24.71 15.84 24.77 15.73 24.83 15.63C24.88 15.53 24.94 15.43 25.01 15.33C25.07 15.23 25.13 15.13 25.2 15.03C25.26 14.93 25.33 14.84 25.39 14.74C26.02 13.76 26.87 12.95 27.87 12.35C28.87 11.76 29.99 11.41 31.15 11.32C32.31 11.24 33.47 11.43 34.55 11.87C35.62 12.32 36.58 13 37.34 13.88ZM37.77 19.86C37.77 19.42 37.74 18.98 37.67 18.55C37.6 18.12 37.49 17.7 37.34 17.29C37.19 16.87 37.01 16.48 36.79 16.1C36.57 15.72 36.32 15.36 36.03 15.03C35.45 14.35 34.71 13.82 33.87 13.47C33.04 13.13 32.14 12.99 31.24 13.06C30.35 13.13 29.48 13.41 28.71 13.87C27.94 14.34 27.29 14.98 26.82 15.75C26.67 15.95 26.54 16.16 26.41 16.37C26.28 16.58 26.17 16.8 26.05 17.02C25.94 17.24 25.84 17.47 25.74 17.7C25.65 17.93 25.56 18.16 25.48 18.39C25.43 18.57 25.32 18.72 25.17 18.83C25.02 18.94 24.84 18.99 24.66 18.99C24.47 18.99 24.29 18.94 24.14 18.83C24 18.72 23.89 18.57 23.83 18.39C23.75 18.16 23.66 17.93 23.57 17.7C23.47 17.47 23.37 17.24 23.26 17.02C23.15 16.8 23.03 16.58 22.9 16.37C22.77 16.16 22.64 15.95 22.5 15.75C22.24 15.34 21.93 14.97 21.58 14.64C21.24 14.31 20.85 14.03 20.43 13.79C20.01 13.56 19.57 13.38 19.11 13.25C18.65 13.12 18.17 13.05 17.69 13.04C17.27 13.04 16.86 13.08 16.45 13.17C16.04 13.25 15.65 13.38 15.27 13.55C14.89 13.73 14.53 13.94 14.19 14.19C13.86 14.43 13.55 14.72 13.27 15.03C12.99 15.36 12.74 15.72 12.52 16.1C12.3 16.48 12.12 16.88 11.97 17.29C11.82 17.7 11.71 18.12 11.64 18.55C11.57 18.99 11.54 19.42 11.54 19.86C11.54 24.33 15.53 27.73 21.57 32.87C22.56 33.71 23.58 34.58 24.65 35.52C25.73 34.58 26.75 33.72 27.74 32.87C33.78 27.73 37.76 24.33 37.77 19.86Z" />
			</g>
		</g>
		<g id="Group_9768" style="display: none">
			<path id="Ellipse_11" class="shp1" d="M37.79 18.96C34.91 18.96 32.58 16.63 32.58 13.75C32.58 10.87 34.91 8.54 37.79 8.54C40.67 8.54 43 10.87 43 13.75C43 16.63 40.67 18.96 37.79 18.96Z" />
		</g>
	</g>
	<g id="Group_65">
		<g id="cart">
			<g id="Group_64" style="display: none">
				<g id="Group_63">
					<path id="Path_24" fill-rule="evenodd" class="shp0" d="M22.31 18.46C22.25 18.39 22.21 18.31 22.19 18.21C22.16 18.12 22.16 18.03 22.17 17.94C22.18 17.84 22.21 17.75 22.26 17.67C22.31 17.59 22.37 17.52 22.44 17.46L30.36 11.27C30.43 11.21 30.52 11.17 30.61 11.14C30.7 11.12 30.8 11.11 30.9 11.12C30.99 11.13 31.08 11.17 31.17 11.21C31.25 11.26 31.32 11.33 31.38 11.4L36.46 18.15C36.52 18.23 36.56 18.31 36.58 18.4C36.61 18.49 36.61 18.59 36.6 18.68C36.59 18.77 36.56 18.86 36.51 18.94C36.46 19.02 36.4 19.1 36.33 19.15L28.41 25.35C28.39 25.36 28.38 25.37 28.36 25.38C28.34 25.4 28.32 25.41 28.3 25.42C28.28 25.43 28.26 25.44 28.24 25.45C28.22 25.45 28.2 25.46 28.18 25.47C28.11 25.49 28.03 25.5 27.96 25.5C27.89 25.5 27.81 25.49 27.74 25.46C27.67 25.44 27.61 25.41 27.55 25.37C27.49 25.32 27.43 25.27 27.39 25.21L22.31 18.46ZM23.89 18.16L28.1 23.75L34.88 18.45L30.67 12.86L27.74 15.15L28.93 16.79C29.04 16.94 29.09 17.14 29.06 17.33C29.03 17.52 28.92 17.68 28.77 17.8C28.61 17.91 28.42 17.96 28.23 17.93C28.04 17.9 27.87 17.79 27.76 17.64L26.6 16.04L23.89 18.16Z" />
					<path id="Path_25" fill-rule="evenodd" class="shp0" d="M39.97 19.61C40 19.7 40.01 19.8 40 19.89C39.98 19.99 39.95 20.08 39.91 20.16C39.86 20.24 39.8 20.32 39.73 20.38L29.08 28.76C29.85 30.12 29.82 31.78 29.02 33.12C28.22 34.45 26.76 35.25 25.2 35.21C23.65 35.17 22.23 34.29 21.5 32.92C20.77 31.55 20.83 29.89 21.66 28.57L14.98 19.18C14.95 19.14 14.92 19.09 14.9 19.04C14.88 18.99 14.87 18.94 14.86 18.89C14.85 18.84 14.84 18.79 14.85 18.74C14.85 18.69 14.85 18.64 14.87 18.59L15.86 14.58L12.19 9.74L5.46 8.06C5.42 8.11 5.38 8.15 5.33 8.19C5.28 8.23 5.24 8.26 5.19 8.29C5.14 8.33 5.08 8.36 5.03 8.38C4.98 8.41 4.92 8.43 4.87 8.45C4.31 8.62 3.7 8.44 3.33 7.99C2.96 7.54 2.89 6.91 3.17 6.39C3.44 5.88 4 5.58 4.58 5.63C5.16 5.69 5.65 6.09 5.82 6.65C5.83 6.65 5.82 6.66 5.83 6.67L12.78 8.4C12.82 8.41 12.86 8.42 12.9 8.44C12.94 8.46 12.97 8.47 13.01 8.5C13.04 8.52 13.07 8.54 13.1 8.57C13.13 8.6 13.16 8.63 13.18 8.66L27.01 26.91C27.11 26.96 27.22 27.01 27.32 27.06C27.42 27.11 27.52 27.17 27.62 27.23C27.71 27.29 27.81 27.36 27.9 27.43C27.99 27.5 28.08 27.57 28.17 27.65L38.83 19.24C38.91 19.18 38.99 19.14 39.08 19.12C39.17 19.09 39.27 19.08 39.36 19.09C39.46 19.1 39.55 19.13 39.63 19.18C39.71 19.23 39.79 19.29 39.85 19.36C39.9 19.44 39.95 19.52 39.97 19.61ZM18.88 22.18L20.47 20.67L16.98 16.06L16.34 18.61L18.88 22.18ZM22.65 27.47C22.81 27.34 22.98 27.22 23.16 27.11C23.34 27.01 23.53 26.92 23.72 26.84C23.91 26.76 24.11 26.7 24.32 26.65C24.52 26.61 24.72 26.57 24.93 26.56L21.35 21.82L19.73 23.36L22.65 27.47ZM26.15 33.63C26.51 33.52 26.85 33.34 27.14 33.1C27.43 32.86 27.67 32.56 27.85 32.23C28.03 31.89 28.14 31.53 28.17 31.15C28.21 30.77 28.17 30.39 28.06 30.03C27.72 28.91 26.74 28.11 25.58 28C24.42 27.88 23.3 28.48 22.75 29.51C22.2 30.55 22.33 31.81 23.07 32.71C23.82 33.61 25.03 33.97 26.15 33.63L26.15 33.63Z" />
				</g>
			</g>
			<g id="Group_66">
				<g id="user2">
					<path id="Path_11" fill-rule="evenodd" class="shp2" d="M23.92 16.54C22.87 16.54 21.83 16.34 20.86 15.93C19.89 15.53 19 14.94 18.26 14.2C17.52 13.46 16.93 12.58 16.53 11.61C16.13 10.64 15.92 9.6 15.92 8.55C15.92 5.31 17.87 2.4 20.86 1.16C23.84 -0.08 27.28 0.6 29.57 2.89C31.86 5.18 32.54 8.62 31.3 11.61C30.07 14.59 27.15 16.54 23.92 16.54ZM23.92 2.25C23.09 2.25 22.27 2.41 21.5 2.73C20.74 3.04 20.04 3.51 19.46 4.09C18.87 4.68 18.41 5.37 18.09 6.13C17.78 6.9 17.61 7.72 17.61 8.55C17.61 11.1 19.15 13.39 21.5 14.37C23.86 15.35 26.57 14.81 28.37 13C30.18 11.2 30.71 8.49 29.74 6.13C28.76 3.78 26.47 2.24 23.92 2.24L23.92 2.25Z" />
					<path id="Path_12" fill-rule="evenodd" class="shp2" d="M24.12 19.36C26.08 19.36 28.01 19.74 29.82 20.49C31.62 21.24 33.26 22.33 34.64 23.71C36.03 25.1 37.12 26.74 37.87 28.54C38.62 30.35 39 32.28 39 34.23L39 37.65C39 37.76 38.98 37.87 38.94 37.97C38.89 38.08 38.83 38.17 38.75 38.25C38.67 38.33 38.58 38.39 38.48 38.43C38.37 38.47 38.26 38.5 38.15 38.5L10.1 38.5C9.99 38.5 9.88 38.47 9.77 38.43C9.67 38.39 9.58 38.33 9.5 38.25C9.42 38.17 9.36 38.08 9.31 37.97C9.27 37.87 9.25 37.76 9.25 37.65L9.25 34.23C9.25 32.28 9.63 30.35 10.38 28.54C11.13 26.74 12.22 25.1 13.6 23.71C14.99 22.33 16.63 21.24 18.43 20.49C20.24 19.74 22.17 19.36 24.12 19.36ZM37.31 34.24C37.34 30.72 35.96 27.34 33.49 24.84C31.01 22.35 27.64 20.94 24.13 20.94C20.61 20.94 17.24 22.35 14.77 24.84C12.29 27.34 10.92 30.72 10.95 34.24L10.95 36.8L37.3 36.8L37.31 34.24Z" />
				</g>
			</g>
		</g>
		<g id="Group_9776">
			<path id="Ellipse_11" class="shp1" d="M32.21 14.6C29.33 14.6 27 12.27 27 9.39C27 6.51 29.33 4.18 32.21 4.18C35.09 4.18 37.42 6.51 37.42 9.39C37.42 12.27 35.09 14.6 32.21 14.6Z" />
		</g>
	</g>
</svg>