<svg xmlns="http://www.w3.org/2000/svg" viewBox="0 0 46 41" width="46" height="41">
	<style>
		tspan { white-space:pre }
		.shp0 { fill: #404040 } 
		.shp1 { display: none;fill: #1cad68 } 
	</style>
	<g id="Group_9771">
		<g id="like">
			<g id="Group_9758">
				<path id="Path_55" fill-rule="evenodd" class="shp0" d="M42.3 4.2C42.84 4.83 43.32 5.51 43.74 6.23C44.16 6.95 44.52 7.7 44.8 8.49C45.08 9.27 45.3 10.08 45.43 10.9C45.57 11.72 45.64 12.55 45.62 13.38C45.62 17.18 44.14 20.71 40.96 24.49C38.12 27.88 34.02 31.36 29.29 35.4C27.52 36.9 25.69 38.46 23.75 40.16L23.69 40.21C23.57 40.32 23.43 40.4 23.28 40.46C23.13 40.51 22.97 40.54 22.81 40.54C22.65 40.54 22.49 40.51 22.34 40.46C22.19 40.4 22.05 40.32 21.93 40.21L21.87 40.16C19.93 38.46 18.1 36.9 16.34 35.4C11.6 31.36 7.51 27.88 4.67 24.49C1.48 20.71 0 17.18 0 13.38C-0.01 12.55 0.05 11.72 0.19 10.9C0.33 10.07 0.54 9.27 0.83 8.49C1.11 7.7 1.46 6.95 1.88 6.23C2.3 5.51 2.79 4.83 3.33 4.2C4.5 2.85 5.97 1.79 7.62 1.11C9.27 0.43 11.05 0.14 12.83 0.27C14.62 0.39 16.34 0.94 17.88 1.85C19.41 2.76 20.72 4.02 21.68 5.52C21.78 5.67 21.89 5.82 21.99 5.97C22.08 6.12 22.18 6.27 22.28 6.42C22.37 6.58 22.46 6.73 22.55 6.89C22.64 7.04 22.73 7.2 22.82 7.36C22.9 7.2 22.99 7.04 23.08 6.89C23.17 6.73 23.26 6.58 23.36 6.42C23.45 6.27 23.55 6.12 23.65 5.97C23.75 5.82 23.85 5.67 23.95 5.52C24.92 4.02 26.22 2.76 27.75 1.85C29.29 0.94 31.02 0.4 32.8 0.27C34.58 0.14 36.36 0.43 38.01 1.11C39.66 1.79 41.13 2.85 42.3 4.2ZM42.96 13.38C42.97 12.71 42.92 12.04 42.81 11.37C42.7 10.71 42.53 10.06 42.3 9.43C42.08 8.79 41.79 8.18 41.46 7.6C41.12 7.02 40.73 6.47 40.3 5.96C39.39 4.91 38.25 4.1 36.98 3.57C35.7 3.04 34.31 2.83 32.94 2.93C31.56 3.04 30.23 3.47 29.04 4.19C27.86 4.9 26.87 5.89 26.13 7.06C25.92 7.37 25.71 7.69 25.51 8.02C25.32 8.35 25.14 8.68 24.96 9.02C24.79 9.36 24.63 9.71 24.49 10.06C24.34 10.41 24.21 10.77 24.09 11.13C24 11.4 23.83 11.63 23.6 11.8C23.37 11.96 23.1 12.05 22.82 12.05C22.53 12.05 22.26 11.96 22.03 11.8C21.8 11.63 21.63 11.4 21.55 11.13C21.43 10.77 21.29 10.41 21.15 10.06C21 9.71 20.84 9.36 20.67 9.02C20.5 8.68 20.32 8.35 20.12 8.02C19.93 7.69 19.72 7.37 19.5 7.06C19.1 6.44 18.63 5.87 18.1 5.37C17.56 4.86 16.97 4.42 16.33 4.06C15.69 3.7 15 3.42 14.29 3.23C13.58 3.03 12.85 2.93 12.12 2.91C11.48 2.9 10.84 2.97 10.21 3.1C9.59 3.23 8.98 3.43 8.39 3.7C7.81 3.96 7.26 4.28 6.74 4.66C6.23 5.05 5.76 5.48 5.33 5.96C4.9 6.47 4.51 7.02 4.17 7.61C3.84 8.19 3.55 8.8 3.33 9.43C3.1 10.06 2.93 10.71 2.82 11.38C2.71 12.04 2.66 12.71 2.67 13.38C2.67 20.24 8.8 25.47 18.07 33.37C19.6 34.66 21.16 36 22.81 37.43C24.46 36 26.03 34.67 27.55 33.37C36.83 25.46 42.95 20.24 42.96 13.38Z" />
			</g>
		</g>
		<g id="Group_9768">
			<path id="Ellipse_11" class="shp1" d="M42.99 12C38.57 12 34.99 8.42 34.99 4C34.99 -0.42 38.57 -4 42.99 -4C47.42 -4 50.99 -0.42 50.99 4C50.99 8.42 47.42 12 42.99 12Z" />
		</g>
	</g>
</svg>