<svg xmlns="http://www.w3.org/2000/svg" viewBox="0 0 74 41" width="74" height="41">
	<style>
		tspan { white-space:pre }
		.shp0 { fill: #ffffff } 
	</style>
	<g id="Group_95">
		<g id="Layer">
		</g>
		<g id="coupe-car">
			<g id="Group_92">
				<path id="Path_29" fill-rule="evenodd" class="shp0" d="M21.29 18.48C21.76 18.48 22.23 18.57 22.66 18.75C23.09 18.93 23.49 19.19 23.82 19.53C24.15 19.86 24.41 20.25 24.59 20.68C24.77 21.12 24.86 21.58 24.86 22.05C24.86 22.15 24.85 22.25 24.84 22.35C24.77 23.22 24.37 24.04 23.73 24.64C23.09 25.25 22.25 25.59 21.37 25.61C20.49 25.62 19.63 25.32 18.97 24.74C18.3 24.17 17.87 23.36 17.76 22.49C17.76 22.45 17.75 22.42 17.75 22.38C17.75 22.34 17.74 22.31 17.74 22.27C17.74 22.23 17.73 22.19 17.73 22.16C17.73 22.12 17.73 22.08 17.73 22.04C17.73 21.58 17.82 21.11 18 20.68C18.18 20.25 18.44 19.86 18.77 19.52C19.11 19.19 19.5 18.93 19.93 18.75C20.36 18.57 20.83 18.48 21.29 18.48ZM19.51 20.7C19.46 20.78 19.41 20.86 19.36 20.94C19.31 21.02 19.27 21.11 19.23 21.19C19.2 21.28 19.17 21.37 19.14 21.46C19.12 21.56 19.1 21.65 19.09 21.74L20.11 21.74C20.12 21.71 20.13 21.69 20.14 21.66C20.15 21.63 20.16 21.61 20.17 21.58C20.18 21.55 20.19 21.53 20.2 21.5C20.21 21.48 20.23 21.45 20.24 21.43L19.51 20.7ZM19.14 22.64C19.17 22.73 19.2 22.82 19.24 22.91C19.27 22.99 19.31 23.08 19.36 23.16C19.41 23.24 19.46 23.32 19.52 23.4L20.25 22.67C20.23 22.64 20.22 22.62 20.21 22.6C20.19 22.57 20.18 22.54 20.17 22.52C20.16 22.49 20.15 22.47 20.14 22.44C20.13 22.41 20.12 22.39 20.12 22.36L19.09 22.36C19.1 22.45 19.12 22.55 19.14 22.64ZM20.99 23.23C20.97 23.23 20.94 23.22 20.91 23.21C20.89 23.2 20.86 23.19 20.83 23.18C20.81 23.17 20.78 23.16 20.76 23.15C20.73 23.13 20.71 23.12 20.68 23.11L19.96 23.83C20.03 23.89 20.11 23.94 20.19 23.99C20.28 24.03 20.36 24.08 20.45 24.11C20.53 24.15 20.62 24.18 20.72 24.2C20.81 24.23 20.9 24.25 20.99 24.26L20.99 23.23ZM20.99 19.83C20.9 19.85 20.8 19.87 20.71 19.89C20.62 19.91 20.53 19.95 20.44 19.98C20.36 20.02 20.27 20.06 20.19 20.11C20.11 20.15 20.03 20.21 19.95 20.26L20.68 20.99C20.7 20.98 20.73 20.96 20.75 20.95C20.78 20.94 20.8 20.93 20.83 20.91C20.86 20.9 20.88 20.89 20.91 20.88C20.94 20.88 20.96 20.87 20.99 20.86L20.99 19.83ZM21.61 20.86C21.64 20.87 21.66 20.88 21.69 20.88C21.72 20.89 21.74 20.9 21.77 20.91C21.8 20.93 21.82 20.94 21.85 20.95C21.87 20.96 21.9 20.98 21.92 20.99L22.65 20.27C22.57 20.21 22.5 20.16 22.41 20.11C22.33 20.06 22.25 20.02 22.16 19.98C22.07 19.95 21.98 19.92 21.89 19.89C21.8 19.87 21.7 19.85 21.61 19.83L21.61 20.86ZM21.61 24.26L21.61 24.26C21.61 24.26 21.61 24.26 21.61 24.26L21.61 24.26ZM21.61 24.26C21.7 24.25 21.79 24.23 21.89 24.2C21.98 24.18 22.07 24.15 22.15 24.11C22.24 24.07 22.33 24.03 22.41 23.99C22.49 23.94 22.57 23.89 22.64 23.83L21.92 23.1C21.89 23.12 21.87 23.13 21.84 23.14C21.82 23.16 21.79 23.17 21.77 23.18C21.74 23.19 21.72 23.2 21.69 23.21C21.66 23.22 21.64 23.22 21.61 23.23L21.61 24.26ZM23.09 23.4C23.14 23.32 23.19 23.24 23.24 23.16C23.29 23.08 23.33 22.99 23.37 22.91C23.4 22.82 23.43 22.73 23.46 22.64C23.48 22.55 23.5 22.45 23.51 22.36L22.49 22.36C22.48 22.39 22.47 22.41 22.46 22.44C22.45 22.47 22.44 22.49 22.43 22.52C22.42 22.54 22.41 22.57 22.4 22.6C22.38 22.62 22.37 22.64 22.36 22.67L23.09 23.4ZM23.51 21.74C23.5 21.65 23.48 21.56 23.46 21.47C23.43 21.37 23.4 21.28 23.36 21.2C23.33 21.11 23.29 21.02 23.24 20.94C23.19 20.86 23.14 20.78 23.08 20.7L22.36 21.43C22.37 21.45 22.38 21.48 22.4 21.5C22.41 21.53 22.42 21.56 22.43 21.58C22.44 21.61 22.45 21.63 22.46 21.66C22.47 21.69 22.48 21.72 22.49 21.74L23.51 21.74Z" />
				<path id="Path_30" fill-rule="evenodd" class="shp0" d="M50.73 18.51C51.2 18.51 51.66 18.6 52.09 18.78C52.52 18.96 52.91 19.22 53.24 19.55C53.57 19.88 53.83 20.27 54.01 20.7C54.19 21.14 54.28 21.6 54.28 22.06C54.28 22.16 54.27 22.26 54.27 22.36C54.15 23.77 53.21 24.97 51.88 25.42C50.54 25.87 49.07 25.5 48.11 24.46C47.16 23.42 46.91 21.92 47.48 20.63C48.05 19.34 49.32 18.51 50.73 18.51ZM48.95 20.72C48.9 20.8 48.85 20.88 48.8 20.96C48.75 21.04 48.71 21.13 48.68 21.21C48.64 21.3 48.61 21.39 48.59 21.48C48.56 21.57 48.54 21.67 48.53 21.76L49.55 21.76C49.56 21.73 49.57 21.7 49.58 21.68C49.58 21.65 49.59 21.62 49.6 21.6C49.62 21.57 49.63 21.55 49.64 21.52C49.65 21.5 49.67 21.47 49.68 21.45L48.96 20.72L48.95 20.72ZM48.53 22.37C48.54 22.47 48.56 22.56 48.58 22.65C48.61 22.74 48.64 22.83 48.68 22.92C48.71 23.01 48.75 23.09 48.8 23.17C48.85 23.25 48.9 23.33 48.96 23.41L49.68 22.68C49.67 22.66 49.66 22.63 49.64 22.61C49.63 22.58 49.62 22.56 49.61 22.53C49.6 22.51 49.59 22.48 49.58 22.45C49.57 22.43 49.56 22.4 49.55 22.37L48.53 22.37ZM50.43 24.27L50.43 23.24C50.4 23.23 50.37 23.23 50.35 23.22C50.32 23.21 50.29 23.2 50.27 23.19C50.24 23.18 50.22 23.17 50.19 23.15C50.17 23.14 50.14 23.13 50.12 23.12L49.4 23.84C49.47 23.89 49.55 23.95 49.63 23.99C49.71 24.04 49.8 24.08 49.89 24.12C49.97 24.15 50.06 24.18 50.15 24.21C50.24 24.23 50.33 24.25 50.43 24.27ZM50.43 19.86C50.33 19.87 50.24 19.89 50.15 19.91C50.06 19.94 49.97 19.97 49.88 20.01C49.79 20.04 49.71 20.08 49.63 20.13C49.55 20.18 49.47 20.23 49.39 20.29L50.11 21.01C50.14 21 50.16 20.98 50.19 20.97C50.21 20.96 50.24 20.94 50.27 20.93C50.29 20.92 50.32 20.91 50.35 20.9C50.37 20.9 50.4 20.89 50.43 20.88L50.43 19.86ZM51.04 20.88C51.07 20.89 51.1 20.9 51.12 20.9C51.15 20.91 51.18 20.92 51.2 20.93C51.23 20.94 51.25 20.96 51.28 20.97C51.31 20.98 51.33 21 51.36 21.01L52.08 20.29C52 20.23 51.92 20.18 51.84 20.13C51.76 20.08 51.67 20.04 51.59 20.01C51.5 19.97 51.41 19.94 51.32 19.91C51.23 19.89 51.13 19.87 51.04 19.86L51.04 20.88ZM51.04 24.27L51.04 24.26C51.04 24.26 51.04 24.26 51.04 24.27L51.04 24.27ZM51.04 24.26C51.13 24.25 51.23 24.23 51.32 24.21C51.41 24.18 51.5 24.15 51.58 24.12C51.67 24.08 51.75 24.04 51.84 23.99C51.92 23.95 52 23.89 52.07 23.84L51.35 23.12C51.32 23.13 51.3 23.14 51.28 23.15C51.25 23.17 51.23 23.18 51.2 23.19C51.17 23.2 51.15 23.21 51.12 23.22C51.09 23.23 51.07 23.23 51.04 23.24L51.04 24.26ZM52.51 23.41L52.51 23.41C52.51 23.41 52.51 23.41 52.51 23.41L52.51 23.41ZM52.51 23.41C52.57 23.33 52.62 23.25 52.66 23.17C52.71 23.09 52.75 23.01 52.79 22.92C52.82 22.83 52.85 22.74 52.88 22.65C52.9 22.56 52.92 22.47 52.93 22.37L51.92 22.37C51.91 22.4 51.9 22.43 51.89 22.45C51.88 22.48 51.87 22.51 51.86 22.53C51.85 22.56 51.84 22.58 51.82 22.61C51.81 22.63 51.8 22.66 51.78 22.68L52.51 23.41ZM52.94 21.76C52.92 21.67 52.91 21.57 52.88 21.48C52.86 21.39 52.83 21.3 52.79 21.21C52.75 21.13 52.71 21.04 52.67 20.96C52.62 20.88 52.57 20.8 52.51 20.72L51.79 21.45C51.8 21.47 51.81 21.5 51.83 21.52C51.84 21.55 51.85 21.57 51.86 21.6C51.87 21.62 51.88 21.65 51.89 21.68C51.9 21.7 51.91 21.73 51.92 21.76L52.94 21.76Z" />
				<path id="Path_31" fill-rule="evenodd" class="shp0" d="M60.65 20.16C60.66 20.27 60.65 20.39 60.64 20.5C60.63 20.61 60.61 20.73 60.58 20.84C60.55 20.95 60.51 21.05 60.47 21.16C60.43 21.27 60.38 21.37 60.32 21.47L59.99 22.04C59.92 22.16 59.83 22.28 59.73 22.38C59.64 22.49 59.53 22.58 59.41 22.66C59.29 22.74 59.16 22.81 59.02 22.86C58.89 22.91 58.75 22.95 58.61 22.96L55.27 23.41L54.79 23.43C54.82 23.35 54.84 23.27 54.87 23.19C54.89 23.1 54.91 23.02 54.93 22.94C54.95 22.85 54.96 22.77 54.97 22.68C54.99 22.6 55 22.51 55 22.43C55.01 22.31 55.02 22.19 55.02 22.06C55.02 20.92 54.57 19.83 53.77 19.03C52.96 18.22 51.87 17.77 50.73 17.77C49.6 17.77 48.5 18.22 47.7 19.03C46.9 19.83 46.44 20.92 46.44 22.06C46.44 22.11 46.45 22.15 46.45 22.2C46.45 22.24 46.45 22.29 46.45 22.33C46.46 22.38 46.46 22.42 46.47 22.47C46.47 22.51 46.48 22.55 46.48 22.6C46.5 22.71 46.51 22.82 46.54 22.93C46.56 23.05 46.59 23.16 46.62 23.26C46.65 23.37 46.69 23.48 46.73 23.59C46.77 23.69 46.82 23.8 46.86 23.9L46.69 23.91L25.17 23.91C25.23 23.79 25.28 23.67 25.33 23.55C25.37 23.43 25.41 23.3 25.45 23.18C25.48 23.05 25.51 22.93 25.54 22.8C25.56 22.67 25.58 22.54 25.59 22.41C25.6 22.29 25.6 22.17 25.6 22.04C25.6 20.9 25.15 19.81 24.34 19C23.54 18.2 22.44 17.74 21.3 17.74C20.16 17.74 19.07 18.2 18.26 19C17.45 19.81 17 20.9 17 22.04C17 22.09 17 22.13 17 22.18C17 22.22 17 22.27 17.01 22.31C17.01 22.36 17.01 22.4 17.02 22.45C17.02 22.49 17.03 22.54 17.03 22.58C17.05 22.7 17.07 22.81 17.09 22.92C17.12 23.04 17.14 23.15 17.18 23.26C17.21 23.37 17.25 23.48 17.29 23.59C17.33 23.69 17.38 23.8 17.43 23.9L14.33 23.56C14.21 23.55 14.1 23.52 13.99 23.47C13.88 23.42 13.79 23.36 13.7 23.28C13.61 23.2 13.54 23.11 13.48 23.01C13.43 22.91 13.39 22.8 13.36 22.68C13.3 22.38 13.24 22.01 13.2 21.6C13.15 21.1 13.18 20.59 13.3 20.1C13.42 19.61 13.61 19.15 13.88 18.72C14.15 18.3 14.49 17.92 14.88 17.61C15.28 17.29 15.72 17.05 16.19 16.88C21.18 15.1 28.16 15.28 28.16 15.28C28.16 15.28 32.46 13.09 33.97 12.53C41.3 9.81 49.95 12.31 54.63 14.79C55.97 14.84 57.37 14.95 58.2 15.02C58.31 15.03 58.42 15.05 58.52 15.09C58.62 15.13 58.72 15.18 58.8 15.25C58.89 15.31 58.97 15.39 59.03 15.48C59.1 15.57 59.15 15.66 59.19 15.76L60.03 17.98L60.22 18.27C60.29 18.36 60.34 18.46 60.39 18.57C60.45 18.67 60.49 18.78 60.52 18.89C60.56 19.01 60.59 19.12 60.61 19.23C60.63 19.35 60.64 19.47 60.64 19.58L60.65 20.16ZM49.68 14.28C49.15 14.01 48.61 13.76 48.05 13.55C47.49 13.33 46.92 13.15 46.34 12.99C45.76 12.84 45.17 12.71 44.58 12.62C43.99 12.53 43.39 12.47 42.8 12.44C41.89 12.33 40.97 12.28 40.06 12.31C39.14 12.34 38.23 12.44 37.33 12.61C36.43 12.78 35.54 13.03 34.68 13.34C33.82 13.64 32.98 14.02 32.18 14.46C32.24 14.51 32.29 14.57 32.34 14.64C32.38 14.7 32.42 14.77 32.45 14.85C32.48 14.92 32.5 15 32.51 15.08C32.52 15.16 32.52 15.24 32.51 15.31L48.83 15.31L49.68 14.28Z" />
			</g>
		</g>
	</g>
</svg>