<svg xmlns="http://www.w3.org/2000/svg" viewBox="0 0 48 15" width="48" height="15">
	<style>
		tspan { white-space:pre }
		.shp0 { fill: #ffffff } 
	</style>
	<g id="Group_95">
		<g id="Layer">
		</g>
		<g id="coupe-car">
			<g id="Group_92">
				<path id="Path_29" fill-rule="evenodd" class="shp0" d="M8.29 7.48C8.76 7.48 9.23 7.57 9.66 7.75C10.09 7.93 10.49 8.19 10.82 8.53C11.15 8.86 11.41 9.25 11.59 9.68C11.77 10.12 11.86 10.58 11.86 11.05C11.86 11.15 11.85 11.25 11.84 11.35C11.77 12.22 11.37 13.04 10.73 13.64C10.09 14.25 9.25 14.59 8.37 14.61C7.49 14.62 6.63 14.32 5.97 13.74C5.3 13.17 4.87 12.36 4.76 11.49C4.76 11.45 4.75 11.42 4.75 11.38C4.75 11.34 4.74 11.31 4.74 11.27C4.74 11.23 4.73 11.19 4.73 11.16C4.73 11.12 4.73 11.08 4.73 11.04C4.73 10.58 4.82 10.11 5 9.68C5.18 9.25 5.44 8.86 5.77 8.52C6.11 8.19 6.5 7.93 6.93 7.75C7.36 7.57 7.83 7.48 8.29 7.48ZM6.51 9.7C6.46 9.78 6.41 9.86 6.36 9.94C6.31 10.02 6.27 10.11 6.23 10.19C6.2 10.28 6.17 10.37 6.14 10.46C6.12 10.56 6.1 10.65 6.09 10.74L7.11 10.74C7.12 10.71 7.13 10.69 7.14 10.66C7.15 10.63 7.16 10.61 7.17 10.58C7.18 10.55 7.19 10.53 7.2 10.5C7.21 10.48 7.23 10.45 7.24 10.43L6.51 9.7ZM6.14 11.64C6.17 11.73 6.2 11.82 6.24 11.91C6.27 11.99 6.31 12.08 6.36 12.16C6.41 12.24 6.46 12.32 6.52 12.4L7.25 11.67C7.23 11.64 7.22 11.62 7.21 11.6C7.19 11.57 7.18 11.54 7.17 11.52C7.16 11.49 7.15 11.47 7.14 11.44C7.13 11.41 7.12 11.39 7.12 11.36L6.09 11.36C6.1 11.45 6.12 11.55 6.14 11.64ZM7.99 12.23C7.97 12.23 7.94 12.22 7.91 12.21C7.89 12.2 7.86 12.19 7.83 12.18C7.81 12.17 7.78 12.16 7.76 12.15C7.73 12.13 7.71 12.12 7.68 12.11L6.96 12.83C7.03 12.89 7.11 12.94 7.19 12.99C7.28 13.03 7.36 13.08 7.45 13.11C7.53 13.15 7.62 13.18 7.72 13.2C7.81 13.23 7.9 13.25 7.99 13.26L7.99 12.23ZM7.99 8.83C7.9 8.85 7.8 8.87 7.71 8.89C7.62 8.91 7.53 8.95 7.44 8.98C7.36 9.02 7.27 9.06 7.19 9.11C7.11 9.15 7.03 9.21 6.95 9.26L7.68 9.99C7.7 9.98 7.73 9.96 7.75 9.95C7.78 9.94 7.8 9.93 7.83 9.91C7.86 9.9 7.88 9.89 7.91 9.88C7.94 9.88 7.96 9.87 7.99 9.86L7.99 8.83ZM8.61 9.86C8.64 9.87 8.66 9.88 8.69 9.88C8.72 9.89 8.74 9.9 8.77 9.91C8.8 9.93 8.82 9.94 8.85 9.95C8.87 9.96 8.9 9.98 8.92 9.99L9.65 9.27C9.57 9.21 9.5 9.16 9.41 9.11C9.33 9.06 9.25 9.02 9.16 8.98C9.07 8.95 8.98 8.92 8.89 8.89C8.8 8.87 8.7 8.85 8.61 8.83L8.61 9.86ZM8.61 13.26L8.61 13.26C8.61 13.26 8.61 13.26 8.61 13.26L8.61 13.26ZM8.61 13.26C8.7 13.25 8.79 13.23 8.89 13.2C8.98 13.18 9.07 13.15 9.15 13.11C9.24 13.07 9.33 13.03 9.41 12.99C9.49 12.94 9.57 12.89 9.64 12.83L8.92 12.1C8.89 12.12 8.87 12.13 8.84 12.14C8.82 12.16 8.79 12.17 8.77 12.18C8.74 12.19 8.72 12.2 8.69 12.21C8.66 12.22 8.64 12.22 8.61 12.23L8.61 13.26ZM10.09 12.4C10.14 12.32 10.19 12.24 10.24 12.16C10.29 12.08 10.33 11.99 10.37 11.91C10.4 11.82 10.43 11.73 10.46 11.64C10.48 11.55 10.5 11.45 10.51 11.36L9.49 11.36C9.48 11.39 9.47 11.41 9.46 11.44C9.45 11.47 9.44 11.49 9.43 11.52C9.42 11.54 9.41 11.57 9.4 11.6C9.38 11.62 9.37 11.64 9.36 11.67L10.09 12.4ZM10.51 10.74C10.5 10.65 10.48 10.56 10.46 10.47C10.43 10.37 10.4 10.28 10.36 10.2C10.33 10.11 10.29 10.02 10.24 9.94C10.19 9.86 10.14 9.78 10.08 9.7L9.36 10.43C9.37 10.45 9.38 10.48 9.4 10.5C9.41 10.53 9.42 10.56 9.43 10.58C9.44 10.61 9.45 10.63 9.46 10.66C9.47 10.69 9.48 10.72 9.49 10.74L10.51 10.74Z" />
				<path id="Path_30" fill-rule="evenodd" class="shp0" d="M37.73 7.51C38.2 7.51 38.66 7.6 39.09 7.78C39.52 7.96 39.91 8.22 40.24 8.55C40.57 8.88 40.83 9.27 41.01 9.7C41.19 10.14 41.28 10.6 41.28 11.06C41.28 11.16 41.27 11.26 41.27 11.36C41.15 12.77 40.21 13.97 38.88 14.42C37.54 14.87 36.07 14.5 35.11 13.46C34.16 12.42 33.91 10.92 34.48 9.63C35.05 8.34 36.32 7.51 37.73 7.51ZM35.95 9.72C35.9 9.8 35.85 9.88 35.8 9.96C35.75 10.04 35.71 10.13 35.68 10.21C35.64 10.3 35.61 10.39 35.59 10.48C35.56 10.57 35.54 10.67 35.53 10.76L36.55 10.76C36.56 10.73 36.57 10.7 36.58 10.68C36.58 10.65 36.59 10.62 36.6 10.6C36.62 10.57 36.63 10.55 36.64 10.52C36.65 10.5 36.67 10.47 36.68 10.45L35.96 9.72L35.95 9.72ZM35.53 11.37C35.54 11.47 35.56 11.56 35.58 11.65C35.61 11.74 35.64 11.83 35.68 11.92C35.71 12.01 35.75 12.09 35.8 12.17C35.85 12.25 35.9 12.33 35.96 12.41L36.68 11.68C36.67 11.66 36.66 11.63 36.64 11.61C36.63 11.58 36.62 11.56 36.61 11.53C36.6 11.51 36.59 11.48 36.58 11.45C36.57 11.43 36.56 11.4 36.55 11.37L35.53 11.37ZM37.43 13.27L37.43 12.24C37.4 12.23 37.37 12.23 37.35 12.22C37.32 12.21 37.29 12.2 37.27 12.19C37.24 12.18 37.22 12.17 37.19 12.15C37.17 12.14 37.14 12.13 37.12 12.12L36.4 12.84C36.47 12.89 36.55 12.95 36.63 12.99C36.71 13.04 36.8 13.08 36.89 13.12C36.97 13.15 37.06 13.18 37.15 13.21C37.24 13.23 37.33 13.25 37.43 13.27ZM37.43 8.86C37.33 8.87 37.24 8.89 37.15 8.91C37.06 8.94 36.97 8.97 36.88 9.01C36.79 9.04 36.71 9.08 36.63 9.13C36.55 9.18 36.47 9.23 36.39 9.29L37.11 10.01C37.14 10 37.16 9.98 37.19 9.97C37.21 9.96 37.24 9.94 37.27 9.93C37.29 9.92 37.32 9.91 37.35 9.9C37.37 9.9 37.4 9.89 37.43 9.88L37.43 8.86ZM38.04 9.88C38.07 9.89 38.1 9.9 38.12 9.9C38.15 9.91 38.18 9.92 38.2 9.93C38.23 9.94 38.25 9.96 38.28 9.97C38.31 9.98 38.33 10 38.36 10.01L39.08 9.29C39 9.23 38.92 9.18 38.84 9.13C38.76 9.08 38.67 9.04 38.59 9.01C38.5 8.97 38.41 8.94 38.32 8.91C38.23 8.89 38.13 8.87 38.04 8.86L38.04 9.88ZM38.04 13.27L38.04 13.26C38.04 13.26 38.04 13.26 38.04 13.27L38.04 13.27ZM38.04 13.26C38.13 13.25 38.23 13.23 38.32 13.21C38.41 13.18 38.5 13.15 38.58 13.12C38.67 13.08 38.75 13.04 38.84 12.99C38.92 12.95 39 12.89 39.07 12.84L38.35 12.12C38.32 12.13 38.3 12.14 38.28 12.15C38.25 12.17 38.23 12.18 38.2 12.19C38.17 12.2 38.15 12.21 38.12 12.22C38.09 12.23 38.07 12.23 38.04 12.24L38.04 13.26ZM39.51 12.41L39.51 12.41C39.51 12.41 39.51 12.41 39.51 12.41L39.51 12.41ZM39.51 12.41C39.57 12.33 39.62 12.25 39.66 12.17C39.71 12.09 39.75 12.01 39.79 11.92C39.82 11.83 39.85 11.74 39.88 11.65C39.9 11.56 39.92 11.47 39.93 11.37L38.92 11.37C38.91 11.4 38.9 11.43 38.89 11.45C38.88 11.48 38.87 11.51 38.86 11.53C38.85 11.56 38.84 11.58 38.82 11.61C38.81 11.63 38.8 11.66 38.78 11.68L39.51 12.41ZM39.94 10.76C39.92 10.67 39.91 10.57 39.88 10.48C39.86 10.39 39.83 10.3 39.79 10.21C39.75 10.13 39.71 10.04 39.67 9.96C39.62 9.88 39.57 9.8 39.51 9.72L38.79 10.45C38.8 10.47 38.81 10.5 38.83 10.52C38.84 10.55 38.85 10.57 38.86 10.6C38.87 10.62 38.88 10.65 38.89 10.68C38.9 10.7 38.91 10.73 38.92 10.76L39.94 10.76Z" />
				<path id="Path_31" fill-rule="evenodd" class="shp0" d="M47.65 9.16C47.66 9.27 47.65 9.39 47.64 9.5C47.63 9.61 47.61 9.73 47.58 9.84C47.55 9.95 47.51 10.05 47.47 10.16C47.43 10.27 47.38 10.37 47.32 10.47L46.99 11.04C46.92 11.16 46.83 11.28 46.73 11.38C46.64 11.49 46.53 11.58 46.41 11.66C46.29 11.74 46.16 11.81 46.02 11.86C45.89 11.91 45.75 11.95 45.61 11.96L42.27 12.41L41.79 12.43C41.82 12.35 41.84 12.27 41.87 12.19C41.89 12.1 41.91 12.02 41.93 11.94C41.95 11.85 41.96 11.77 41.97 11.68C41.99 11.6 42 11.51 42 11.43C42.01 11.31 42.02 11.19 42.02 11.06C42.02 9.92 41.57 8.83 40.77 8.03C39.96 7.22 38.87 6.77 37.73 6.77C36.6 6.77 35.5 7.22 34.7 8.03C33.9 8.83 33.44 9.92 33.44 11.06C33.44 11.11 33.45 11.15 33.45 11.2C33.45 11.24 33.45 11.29 33.45 11.33C33.46 11.38 33.46 11.42 33.47 11.47C33.47 11.51 33.48 11.55 33.48 11.6C33.5 11.71 33.51 11.82 33.54 11.93C33.56 12.05 33.59 12.16 33.62 12.26C33.65 12.37 33.69 12.48 33.73 12.59C33.77 12.69 33.82 12.8 33.86 12.9L33.69 12.91L12.17 12.91C12.23 12.79 12.28 12.67 12.33 12.55C12.37 12.43 12.41 12.3 12.45 12.18C12.48 12.05 12.51 11.93 12.54 11.8C12.56 11.67 12.58 11.54 12.59 11.41C12.6 11.29 12.6 11.17 12.6 11.04C12.6 9.9 12.15 8.81 11.34 8C10.54 7.2 9.44 6.74 8.3 6.74C7.16 6.74 6.07 7.2 5.26 8C4.45 8.81 4 9.9 4 11.04C4 11.09 4 11.13 4 11.18C4 11.22 4 11.27 4.01 11.31C4.01 11.36 4.01 11.4 4.02 11.45C4.02 11.49 4.03 11.54 4.03 11.58C4.05 11.7 4.07 11.81 4.09 11.92C4.12 12.04 4.14 12.15 4.18 12.26C4.21 12.37 4.25 12.48 4.29 12.59C4.33 12.69 4.38 12.8 4.43 12.9L1.33 12.56C1.21 12.55 1.1 12.52 0.99 12.47C0.88 12.42 0.79 12.36 0.7 12.28C0.61 12.2 0.54 12.11 0.48 12.01C0.43 11.91 0.39 11.8 0.36 11.68C0.3 11.38 0.24 11.01 0.2 10.6C0.15 10.1 0.18 9.59 0.3 9.1C0.42 8.61 0.61 8.15 0.88 7.72C1.15 7.3 1.49 6.92 1.88 6.61C2.28 6.29 2.72 6.05 3.19 5.88C8.18 4.1 15.16 4.28 15.16 4.28C15.16 4.28 19.46 2.09 20.97 1.53C28.3 -1.19 36.95 1.31 41.63 3.79C42.97 3.84 44.37 3.95 45.2 4.02C45.31 4.03 45.42 4.05 45.52 4.09C45.62 4.13 45.72 4.18 45.8 4.25C45.89 4.31 45.97 4.39 46.03 4.48C46.1 4.57 46.15 4.66 46.19 4.76L47.03 6.98L47.22 7.27C47.29 7.36 47.34 7.46 47.39 7.57C47.45 7.67 47.49 7.78 47.52 7.89C47.56 8.01 47.59 8.12 47.61 8.23C47.63 8.35 47.64 8.47 47.64 8.58L47.65 9.16ZM36.68 3.28C36.15 3.01 35.61 2.76 35.05 2.55C34.49 2.33 33.92 2.15 33.34 1.99C32.76 1.84 32.17 1.71 31.58 1.62C30.99 1.53 30.39 1.47 29.8 1.44C28.89 1.33 27.97 1.28 27.06 1.31C26.14 1.34 25.23 1.44 24.33 1.61C23.43 1.78 22.54 2.03 21.68 2.34C20.82 2.64 19.98 3.02 19.18 3.46C19.24 3.51 19.29 3.57 19.34 3.64C19.38 3.7 19.42 3.77 19.45 3.85C19.48 3.92 19.5 4 19.51 4.08C19.52 4.16 19.52 4.24 19.51 4.31L35.83 4.31L36.68 3.28Z" />
			</g>
		</g>
	</g>
</svg>