<svg xmlns="http://www.w3.org/2000/svg" viewBox="0 0 42 19" width="42" height="19">
	<style>
		tspan { white-space:pre }
		.shp0 { fill: #ffffff } 
	</style>
	<g id="Group_96">
		<g id="Layer">
		</g>
		<g id="microbus">
			<g id="Group_94">
				<path id="Path_42" fill-rule="evenodd" class="shp0" d="M41.96 14.39C41.96 14.43 41.96 14.47 41.95 14.5C41.94 14.53 41.92 14.57 41.9 14.59C41.88 14.62 41.86 14.65 41.83 14.67C41.8 14.69 41.77 14.71 41.74 14.72L40.66 15.12C40.62 15.22 40.57 15.32 40.5 15.4C40.43 15.49 40.35 15.57 40.26 15.63C40.17 15.69 40.08 15.74 39.97 15.77C39.87 15.81 39.76 15.82 39.65 15.83L37.14 15.86L35.1 12.08C35.04 11.98 34.98 11.89 34.9 11.8C34.81 11.72 34.72 11.65 34.62 11.59C34.52 11.53 34.42 11.48 34.3 11.45C34.19 11.42 34.08 11.4 33.96 11.4L31.56 11.4C31.44 11.4 31.33 11.42 31.21 11.45C31.1 11.48 30.99 11.53 30.89 11.59C30.79 11.65 30.7 11.73 30.62 11.81C30.53 11.9 30.47 11.99 30.41 12.1L29.09 14.61L12.62 14.62L11.18 12.06C11.13 11.96 11.06 11.87 10.98 11.79C10.9 11.71 10.81 11.64 10.71 11.58C10.61 11.53 10.5 11.48 10.39 11.46C10.28 11.43 10.17 11.41 10.05 11.42L7.53 11.46C7.41 11.47 7.29 11.49 7.18 11.52C7.07 11.56 6.96 11.61 6.86 11.67C6.76 11.74 6.67 11.82 6.59 11.91C6.51 12 6.45 12.1 6.4 12.21L5.32 14.62L2.42 14.62C2.2 14.62 1.98 14.58 1.78 14.5C1.58 14.42 1.39 14.3 1.23 14.16C1.07 14.01 0.94 13.83 0.85 13.63C0.75 13.43 0.7 13.22 0.68 13C0.65 12.53 0.61 11.99 0.58 11.43L0.5 11.43C0.47 11.43 0.44 11.42 0.41 11.42C0.38 11.41 0.35 11.4 0.32 11.39C0.29 11.38 0.26 11.37 0.24 11.35C0.21 11.34 0.19 11.32 0.17 11.3C0.14 11.27 0.12 11.25 0.11 11.23C0.09 11.2 0.07 11.17 0.06 11.15C0.05 11.12 0.04 11.09 0.03 11.06C0.03 11.03 0.02 11 0.02 10.97L0 9.93C0 9.87 0.01 9.8 0.04 9.75C0.06 9.69 0.09 9.64 0.13 9.59C0.18 9.55 0.23 9.51 0.28 9.49C0.34 9.46 0.4 9.45 0.46 9.45L0.5 9.45C0.49 9.25 0.48 9.05 0.48 8.85C0.47 8.65 0.48 8.45 0.48 8.24C0.49 8.04 0.5 7.84 0.52 7.64C0.54 7.44 0.56 7.24 0.59 7.04C0.61 6.91 0.66 6.77 0.72 6.65C0.77 6.52 0.85 6.4 0.94 6.3C1.03 6.19 1.13 6.09 1.24 6.01C1.35 5.93 1.47 5.86 1.6 5.81C1.76 5.45 1.94 5.1 2.12 4.75C2.3 4.4 2.49 4.06 2.69 3.73C2.9 3.39 3.11 3.06 3.33 2.74C3.55 2.42 3.78 2.1 4.02 1.79C4.1 1.7 4.19 1.62 4.28 1.55C4.38 1.47 4.48 1.4 4.58 1.34C4.68 1.28 4.79 1.23 4.9 1.19C5.02 1.15 5.13 1.12 5.25 1.09C11.01 -0.12 37.63 0.04 39.21 1.44C40.65 2.72 40.88 9.61 40.96 9.63C41.05 9.64 41.12 9.67 41.19 9.71C41.26 9.75 41.33 9.81 41.38 9.87C41.43 9.93 41.47 10 41.5 10.08C41.53 10.15 41.55 10.23 41.55 10.31L41.58 12.1C41.58 12.15 41.58 12.2 41.57 12.25C41.56 12.29 41.55 12.34 41.53 12.39C41.51 12.43 41.48 12.48 41.45 12.52C41.42 12.56 41.39 12.6 41.35 12.63L41.08 12.88L41.09 13.45L41.65 13.52C41.69 13.52 41.73 13.53 41.77 13.55C41.81 13.57 41.84 13.6 41.87 13.63C41.89 13.66 41.92 13.69 41.93 13.73C41.95 13.77 41.95 13.81 41.95 13.85L41.96 14.39ZM5.58 5.86L5.54 2.2L5.16 2.2C5.11 2.2 5.05 2.21 4.99 2.23C4.94 2.25 4.89 2.27 4.84 2.3C4.79 2.34 4.75 2.38 4.71 2.42C4.67 2.46 4.64 2.51 4.62 2.57L3.58 4.93C3.53 5.04 3.51 5.15 3.52 5.26C3.53 5.38 3.57 5.48 3.64 5.58C3.7 5.67 3.78 5.75 3.89 5.8C3.99 5.85 4.1 5.88 4.21 5.88L5.58 5.86ZM12.07 2.72C12.08 2.64 12.07 2.56 12.04 2.48C12.01 2.4 11.97 2.33 11.91 2.26C11.85 2.2 11.78 2.16 11.71 2.12C11.63 2.09 11.54 2.07 11.46 2.08L5.85 2.18L5.88 5.84L11.28 5.74C11.36 5.74 11.43 5.73 11.5 5.7C11.57 5.67 11.63 5.63 11.68 5.58C11.74 5.53 11.78 5.47 11.81 5.4C11.85 5.34 11.87 5.27 11.87 5.19L12.07 2.72ZM24.28 5.47C24.3 5.44 24.32 5.41 24.33 5.37C24.35 5.33 24.36 5.29 24.36 5.25C24.37 5.22 24.37 5.18 24.37 5.14L24.33 2.7C24.32 2.62 24.31 2.55 24.28 2.48C24.25 2.4 24.2 2.34 24.15 2.28C24.09 2.23 24.03 2.19 23.95 2.16C23.88 2.13 23.8 2.11 23.73 2.11L14.49 2.04C14.41 2.04 14.33 2.05 14.26 2.09C14.18 2.12 14.12 2.16 14.06 2.22C14.01 2.28 13.96 2.34 13.93 2.42C13.9 2.49 13.89 2.57 13.89 2.65L13.94 5.11C13.94 5.19 13.96 5.26 13.99 5.33C14.02 5.41 14.06 5.47 14.12 5.52C14.17 5.58 14.24 5.62 14.31 5.65C14.38 5.68 14.46 5.7 14.54 5.7L23.77 5.74C23.81 5.75 23.85 5.74 23.89 5.73C23.93 5.73 23.97 5.71 24.01 5.7C24.04 5.68 24.08 5.67 24.11 5.64C24.14 5.62 24.17 5.6 24.2 5.57C24.23 5.54 24.26 5.51 24.28 5.47ZM36.68 5.51C36.71 5.48 36.73 5.44 36.75 5.4C36.77 5.36 36.78 5.32 36.79 5.27C36.8 5.23 36.81 5.19 36.81 5.14C36.81 5.1 36.8 5.05 36.79 5.01L36.43 3.24C36.4 3.08 36.34 2.93 36.25 2.79C36.17 2.65 36.07 2.53 35.94 2.43C35.82 2.33 35.68 2.25 35.53 2.19C35.37 2.14 35.22 2.11 35.05 2.11L26.38 2.04C26.3 2.04 26.22 2.05 26.15 2.08C26.07 2.12 26.01 2.16 25.95 2.22C25.89 2.27 25.85 2.34 25.82 2.42C25.79 2.49 25.78 2.57 25.78 2.65L25.82 5.11C25.83 5.18 25.84 5.26 25.87 5.33C25.9 5.4 25.95 5.47 26 5.52C26.06 5.58 26.12 5.62 26.2 5.65C26.27 5.68 26.35 5.7 26.42 5.7L36.21 5.73C36.26 5.73 36.3 5.73 36.34 5.72C36.39 5.71 36.43 5.69 36.47 5.68C36.51 5.66 36.55 5.63 36.58 5.61C36.62 5.58 36.65 5.55 36.68 5.51L36.68 5.51Z" />
				<path id="Path_43" fill-rule="evenodd" class="shp0" d="M8.85 12.07C9.27 12.07 9.68 12.15 10.07 12.31C10.46 12.46 10.82 12.7 11.12 12.99C11.42 13.28 11.66 13.64 11.83 14.02C11.99 14.41 12.08 14.83 12.08 15.25C12.08 15.34 12.08 15.43 12.07 15.52C12.02 16.32 11.68 17.07 11.11 17.62C10.53 18.18 9.77 18.5 8.97 18.53C8.17 18.55 7.4 18.27 6.79 17.75C6.19 17.23 5.8 16.5 5.7 15.71C5.7 15.68 5.69 15.64 5.69 15.61C5.68 15.58 5.68 15.54 5.68 15.51C5.68 15.48 5.67 15.44 5.67 15.41C5.67 15.38 5.67 15.34 5.67 15.31C5.67 14.89 5.74 14.47 5.9 14.08C6.06 13.69 6.29 13.34 6.59 13.03C6.88 12.73 7.23 12.49 7.62 12.33C8.01 12.16 8.42 12.08 8.85 12.07ZM8.58 13.29L8.58 13.29C8.58 13.29 8.58 13.29 8.58 13.29L8.58 13.29ZM8.58 13.29C8.49 13.31 8.41 13.32 8.33 13.35C8.25 13.37 8.17 13.4 8.09 13.43C8.01 13.47 7.93 13.5 7.86 13.55C7.78 13.59 7.71 13.64 7.65 13.69L8.31 14.34C8.33 14.32 8.35 14.31 8.37 14.3C8.4 14.29 8.42 14.28 8.44 14.27C8.47 14.26 8.49 14.25 8.51 14.24C8.54 14.23 8.56 14.22 8.59 14.22L8.58 13.29ZM7.26 14.09C7.21 14.16 7.16 14.23 7.12 14.3C7.08 14.38 7.04 14.45 7.01 14.53C6.98 14.61 6.95 14.69 6.93 14.78C6.91 14.86 6.89 14.94 6.88 15.03L7.8 15.02C7.81 14.99 7.82 14.97 7.83 14.95C7.83 14.92 7.84 14.9 7.85 14.87C7.86 14.85 7.87 14.83 7.88 14.8C7.89 14.78 7.91 14.76 7.92 14.74L7.26 14.09ZM6.88 15.58L6.89 15.58C6.89 15.58 6.89 15.58 6.88 15.58L6.88 15.58ZM6.89 15.58C6.9 15.67 6.92 15.75 6.94 15.83C6.96 15.91 6.99 15.99 7.02 16.07C7.06 16.15 7.1 16.23 7.14 16.3C7.18 16.37 7.23 16.44 7.28 16.51L7.93 15.85C7.92 15.83 7.91 15.81 7.9 15.79C7.88 15.76 7.87 15.74 7.86 15.72C7.85 15.69 7.84 15.67 7.84 15.65C7.83 15.62 7.82 15.6 7.81 15.57L6.89 15.58ZM7.68 16.9C7.75 16.95 7.82 17 7.9 17.04C7.97 17.08 8.05 17.12 8.13 17.15C8.21 17.18 8.29 17.2 8.37 17.23C8.45 17.25 8.53 17.26 8.62 17.27L8.61 16.35C8.58 16.34 8.56 16.34 8.54 16.33C8.51 16.32 8.49 16.31 8.47 16.3C8.44 16.3 8.42 16.29 8.4 16.27C8.37 16.26 8.35 16.25 8.33 16.24L7.68 16.9L7.68 16.9ZM10.86 14.99C10.85 14.9 10.83 14.82 10.81 14.74C10.79 14.66 10.76 14.58 10.73 14.5C10.69 14.42 10.66 14.34 10.61 14.27C10.57 14.2 10.52 14.12 10.47 14.06L9.82 14.72C9.84 14.74 9.85 14.76 9.86 14.78C9.87 14.81 9.88 14.83 9.89 14.85C9.9 14.88 9.91 14.9 9.92 14.92C9.93 14.95 9.94 14.97 9.94 15L10.87 14.99L10.86 14.99ZM9.14 14.21C9.17 14.22 9.19 14.23 9.22 14.23C9.24 14.24 9.27 14.25 9.29 14.26C9.31 14.27 9.34 14.28 9.36 14.29C9.38 14.3 9.41 14.32 9.43 14.33L10.08 13.67C10.01 13.62 9.93 13.57 9.86 13.53C9.79 13.49 9.71 13.45 9.63 13.42C9.55 13.39 9.47 13.36 9.39 13.34C9.3 13.32 9.22 13.3 9.13 13.29L9.14 14.21ZM9.17 17.27L9.17 17.27C9.17 17.27 9.17 17.27 9.17 17.27L9.17 17.27ZM9.17 17.27C9.26 17.26 9.34 17.24 9.42 17.22C9.5 17.19 9.58 17.17 9.66 17.13C9.74 17.1 9.82 17.06 9.89 17.02C9.96 16.98 10.03 16.93 10.1 16.88L9.44 16.23C9.42 16.24 9.4 16.26 9.38 16.27C9.35 16.28 9.33 16.29 9.31 16.3C9.28 16.31 9.26 16.32 9.24 16.32C9.21 16.33 9.19 16.34 9.16 16.35L9.17 17.27ZM10.49 16.48C10.54 16.41 10.59 16.34 10.63 16.27C10.67 16.19 10.71 16.12 10.74 16.04C10.77 15.96 10.8 15.88 10.82 15.8C10.84 15.71 10.86 15.63 10.87 15.54L9.95 15.55C9.94 15.58 9.93 15.6 9.92 15.63C9.92 15.65 9.91 15.67 9.9 15.7C9.89 15.72 9.88 15.74 9.87 15.77C9.85 15.79 9.84 15.81 9.83 15.83L10.49 16.48L10.49 16.48Z" />
				<path id="Path_44" fill-rule="evenodd" class="shp0" d="M32.75 12.07C33.17 12.07 33.59 12.15 33.98 12.31C34.37 12.46 34.72 12.7 35.03 12.99C35.33 13.28 35.57 13.64 35.73 14.02C35.9 14.41 35.98 14.83 35.99 15.25C35.99 15.34 35.98 15.43 35.98 15.52C35.93 16.32 35.58 17.07 35.01 17.62C34.44 18.18 33.68 18.5 32.88 18.53C32.08 18.55 31.3 18.27 30.7 17.75C30.09 17.23 29.7 16.5 29.61 15.71C29.6 15.68 29.6 15.64 29.59 15.61C29.59 15.58 29.59 15.54 29.58 15.51C29.58 15.48 29.58 15.44 29.58 15.41C29.57 15.38 29.57 15.34 29.57 15.31C29.57 14.89 29.65 14.47 29.81 14.08C29.96 13.69 30.2 13.34 30.49 13.04C30.79 12.73 31.14 12.5 31.52 12.33C31.91 12.17 32.33 12.08 32.75 12.07ZM32.48 13.29L32.48 13.29C32.48 13.29 32.48 13.29 32.48 13.29L32.48 13.29ZM32.48 13.29C32.4 13.31 32.32 13.32 32.23 13.35C32.15 13.37 32.07 13.4 31.99 13.43C31.91 13.47 31.84 13.5 31.76 13.55C31.69 13.59 31.62 13.64 31.55 13.69L32.21 14.34C32.23 14.32 32.25 14.31 32.28 14.3C32.3 14.29 32.32 14.28 32.35 14.27C32.37 14.26 32.39 14.25 32.42 14.24C32.44 14.23 32.47 14.22 32.49 14.22L32.48 13.29ZM31.16 14.09C31.11 14.16 31.07 14.23 31.02 14.3C30.98 14.38 30.95 14.45 30.91 14.53C30.88 14.61 30.86 14.69 30.83 14.78C30.81 14.86 30.8 14.94 30.79 15.03L31.71 15.02C31.72 14.99 31.72 14.97 31.73 14.94C31.74 14.92 31.75 14.9 31.76 14.87C31.77 14.85 31.78 14.83 31.79 14.8C31.8 14.78 31.81 14.76 31.82 14.73L31.16 14.09L31.16 14.09ZM30.79 15.58C30.8 15.67 30.82 15.75 30.84 15.83C30.87 15.91 30.9 15.99 30.93 16.07C30.96 16.15 31 16.23 31.04 16.3C31.09 16.37 31.14 16.44 31.19 16.51L31.84 15.85C31.82 15.83 31.81 15.81 31.8 15.78C31.79 15.76 31.78 15.74 31.77 15.72C31.76 15.69 31.75 15.67 31.74 15.65C31.73 15.62 31.72 15.6 31.72 15.57L30.79 15.58ZM31.59 16.9C31.66 16.95 31.73 17 31.8 17.04C31.88 17.08 31.95 17.11 32.03 17.15C32.11 17.18 32.19 17.2 32.27 17.23C32.36 17.25 32.44 17.26 32.52 17.27L32.51 16.35C32.49 16.34 32.47 16.34 32.44 16.33C32.42 16.32 32.39 16.31 32.37 16.3C32.35 16.29 32.32 16.28 32.3 16.27C32.28 16.26 32.26 16.25 32.23 16.24L31.59 16.9L31.59 16.9ZM34.77 14.99L34.77 14.99C34.77 14.99 34.77 14.99 34.77 14.99L34.77 14.99ZM34.77 14.99C34.76 14.9 34.74 14.82 34.72 14.74C34.69 14.66 34.67 14.58 34.63 14.5C34.6 14.42 34.56 14.34 34.52 14.27C34.48 14.19 34.43 14.12 34.38 14.06L33.73 14.72C33.74 14.74 33.75 14.76 33.77 14.78C33.78 14.81 33.79 14.83 33.8 14.85C33.81 14.88 33.82 14.9 33.83 14.92C33.83 14.95 33.84 14.97 33.85 15L34.77 14.99ZM33.05 14.21C33.07 14.22 33.1 14.22 33.12 14.23C33.15 14.24 33.17 14.25 33.2 14.26C33.22 14.27 33.24 14.28 33.27 14.29C33.29 14.3 33.31 14.31 33.33 14.33L33.98 13.67C33.91 13.62 33.84 13.57 33.77 13.53C33.69 13.49 33.61 13.45 33.53 13.42C33.46 13.38 33.37 13.36 33.29 13.34C33.21 13.31 33.12 13.3 33.04 13.29L33.05 14.21ZM33.08 17.27C33.16 17.26 33.25 17.24 33.33 17.22C33.41 17.19 33.49 17.17 33.57 17.13C33.65 17.1 33.72 17.06 33.79 17.02C33.87 16.98 33.94 16.93 34 16.88L33.35 16.23C33.32 16.24 33.3 16.25 33.28 16.27C33.26 16.28 33.23 16.29 33.21 16.3C33.19 16.31 33.16 16.32 33.14 16.32C33.12 16.33 33.09 16.34 33.07 16.34L33.08 17.27L33.08 17.27ZM34.4 16.48L34.4 16.48C34.4 16.48 34.4 16.48 34.4 16.48L34.4 16.48ZM34.4 16.48C34.45 16.41 34.5 16.34 34.54 16.27C34.58 16.19 34.61 16.12 34.65 16.04C34.68 15.96 34.7 15.88 34.73 15.79C34.75 15.71 34.76 15.63 34.77 15.54L33.85 15.55C33.85 15.58 33.84 15.6 33.83 15.63C33.82 15.65 33.81 15.67 33.8 15.7C33.79 15.72 33.78 15.74 33.77 15.77C33.76 15.79 33.75 15.81 33.73 15.83L34.4 16.48Z" />
			</g>
		</g>
	</g>
</svg>