<svg xmlns="http://www.w3.org/2000/svg" viewBox="0 0 35 19" width="35" height="19">
	<style>
		tspan { white-space:pre }
		.shp0 { fill: #ffffff } 
	</style>
	<g id="Group_97">
		<g id="Layer">
		</g>
		<g id="race-bike">
			<g id="Group_93">
				<path id="Path_32" class="shp0" d="M22.3 9.2C22.43 9.12 22.52 8.98 22.53 8.83C22.54 8.68 22.49 8.54 22.38 8.44C22.27 8.33 22.11 8.29 21.97 8.32C21.82 8.35 21.69 8.44 21.62 8.57L21.23 9C21.51 9.19 21.77 9.36 22.01 9.52L22.3 9.2Z" />
				<path id="Path_33" class="shp0" d="M23.44 9.77C23.57 9.69 23.65 9.55 23.67 9.4C23.68 9.25 23.62 9.1 23.51 9C23.4 8.9 23.25 8.86 23.1 8.89C22.95 8.91 22.83 9.01 22.76 9.14L22.26 9.69C22.62 9.92 22.89 10.1 23.05 10.19L23.44 9.77Z" />
				<path id="Path_34" class="shp0" d="M24.57 10.33C24.7 10.25 24.79 10.12 24.8 9.97C24.81 9.82 24.76 9.67 24.65 9.57C24.54 9.47 24.38 9.43 24.24 9.45C24.09 9.48 23.96 9.58 23.89 9.71L23.39 10.27C23.65 10.29 24.05 10.32 24.55 10.36L24.57 10.33Z" />
				<path id="Path_35" class="shp0" d="M18.36 7.05C19.18 7.61 20.1 8.24 20.91 8.79L21.44 8.26C21.44 8.26 20.32 7.49 19.33 6.81C19.24 6.83 19.16 6.84 19.08 6.86C19 6.87 18.92 6.89 18.84 6.91C18.76 6.93 18.68 6.95 18.6 6.97C18.52 7 18.44 7.02 18.36 7.05Z" />
				<path id="Path_36" class="shp0" d="M9.31 16.41C9.4 16.23 9.48 16.04 9.55 15.85C9.62 15.66 9.67 15.47 9.72 15.27C9.76 15.08 9.79 14.88 9.81 14.67C9.83 14.47 9.84 14.27 9.83 14.07C9.7 13.93 9.56 13.79 9.42 13.66C9.28 13.53 9.13 13.4 8.99 13.27C8.84 13.14 8.69 13.02 8.54 12.9C8.39 12.78 8.23 12.66 8.07 12.55C8.71 13.99 8.29 15.67 7.06 16.65C5.83 17.62 4.1 17.64 2.84 16.7C1.59 15.75 1.13 14.08 1.73 12.63C2.33 11.18 3.84 10.31 5.39 10.53C5.24 10.41 5.1 10.3 4.95 10.18C4.81 10.06 4.67 9.93 4.53 9.81C4.39 9.68 4.25 9.55 4.12 9.42C3.98 9.29 3.85 9.16 3.72 9.02C2.08 9.43 0.75 10.63 0.19 12.23C-0.37 13.82 -0.1 15.6 0.92 16.95C1.94 18.3 3.57 19.04 5.26 18.94C6.95 18.83 8.47 17.88 9.31 16.41Z" />
				<path id="Path_37" class="shp0" d="M5.24 11.66C4.23 11.53 3.25 12.09 2.85 13.04C2.46 13.99 2.75 15.08 3.57 15.71C4.38 16.33 5.51 16.33 6.32 15.71C7.14 15.09 7.43 13.99 7.04 13.05L5.84 14.6C5.66 14.84 5.39 14.99 5.09 15.03C4.79 15.07 4.49 14.99 4.25 14.8C4.01 14.62 3.85 14.35 3.82 14.05C3.78 13.75 3.86 13.45 4.04 13.21L5.24 11.66Z" />
				<path id="Path_38" class="shp0" d="M29.79 8.22C29.37 8.22 28.95 8.27 28.55 8.37C28.14 8.47 27.75 8.62 27.37 8.81C27 9 26.65 9.23 26.33 9.5C26.01 9.78 25.73 10.09 25.48 10.42C26.32 10.48 27.26 10.54 28.17 10.6C29.31 9.97 30.71 10.06 31.76 10.82C32.82 11.58 33.34 12.88 33.1 14.16C32.86 15.44 31.91 16.47 30.65 16.8C29.39 17.13 28.06 16.71 27.22 15.71C26.44 15.48 25.51 15.23 24.69 15.06C25.26 16.99 26.88 18.44 28.86 18.79C30.84 19.14 32.85 18.34 34.06 16.73C35.26 15.11 35.45 12.96 34.55 11.16C33.64 9.36 31.8 8.22 29.79 8.22L29.79 8.22Z" />
				<path id="Path_39" class="shp0" d="M4.94 3.66C5.18 3.48 5.43 3.31 5.68 3.15C5.93 2.98 6.19 2.83 6.45 2.69C6.71 2.55 6.98 2.41 7.25 2.29C7.53 2.16 7.8 2.05 8.08 1.94L9.03 0.27L7.72 0.87C7.43 1.03 7.15 1.21 6.89 1.41C6.62 1.61 6.37 1.83 6.13 2.06C5.9 2.3 5.68 2.55 5.48 2.82C5.28 3.08 5.1 3.36 4.94 3.66Z" />
				<path id="Path_40" fill-rule="evenodd" class="shp0" d="M23.67 7.09C23.6 7.13 23.52 7.17 23.44 7.2C23.36 7.23 23.28 7.26 23.19 7.28C23.11 7.31 23.03 7.32 22.94 7.34C22.85 7.35 22.77 7.35 22.68 7.36C22.6 7.36 22.53 7.35 22.45 7.34C22.37 7.33 22.3 7.31 22.23 7.29C22.15 7.27 22.08 7.24 22.01 7.2C21.94 7.17 21.88 7.13 21.81 7.09C21.67 6.96 21.53 6.84 21.37 6.73C21.21 6.63 21.04 6.54 20.86 6.46C20.69 6.39 20.51 6.33 20.32 6.28C20.14 6.24 19.95 6.22 19.76 6.21C19.66 6.21 19.57 6.21 19.48 6.22C19.39 6.23 19.3 6.24 19.2 6.25C19.11 6.26 19.02 6.28 18.93 6.3C18.84 6.32 18.75 6.34 18.66 6.36C18.53 6.4 18.4 6.44 18.27 6.48C18.15 6.52 18.02 6.56 17.89 6.61C17.77 6.65 17.64 6.7 17.52 6.75C17.39 6.8 17.27 6.85 17.14 6.91C17.14 6.91 18.91 8.13 20.49 9.2L20.84 9.42C21.11 9.61 21.37 9.78 21.61 9.94L21.86 10.11C22.19 10.33 22.46 10.5 22.65 10.62C22.67 10.63 22.69 10.64 22.71 10.66C22.73 10.67 22.76 10.68 22.78 10.7C22.8 10.71 22.82 10.72 22.85 10.73C22.87 10.75 22.89 10.76 22.91 10.77L22.93 10.78C23 10.8 23.44 10.85 24.05 10.89C24.37 10.92 24.73 10.94 25.12 10.97C25.86 11.02 26.69 11.08 27.45 11.12L28.31 11.18C29.25 11.24 29.94 11.28 29.94 11.28L29.94 11.29C30.53 11.33 31.08 11.6 31.47 12.03C31.87 12.47 32.08 13.05 32.06 13.64C32.04 14.22 31.79 14.78 31.36 15.19C30.94 15.6 30.37 15.83 29.78 15.83C29.73 15.82 29.67 15.82 29.62 15.82C29.56 15.81 29.5 15.8 29.45 15.8C29.4 15.79 29.34 15.78 29.29 15.76C29.23 15.75 29.18 15.73 29.13 15.72L29.13 15.73C29.13 15.73 28.46 15.5 27.56 15.23C27.31 15.15 27.03 15.07 26.75 14.99C26.03 14.79 25.25 14.59 24.55 14.46C24.44 14.44 24.34 14.42 24.23 14.4C24.12 14.39 24.01 14.37 23.91 14.36C23.8 14.35 23.69 14.34 23.58 14.33C23.48 14.32 23.37 14.32 23.26 14.31C22.9 14.31 22.64 14.37 22.54 14.52C21.94 15.37 21.35 16.12 21.26 16.22C21.17 16.32 21.07 16.41 20.96 16.48C20.85 16.56 20.74 16.62 20.61 16.67C20.49 16.72 20.36 16.75 20.23 16.77C20.1 16.79 19.97 16.8 19.84 16.79L9.76 16.79C9.87 16.56 9.98 16.33 10.06 16.1C10.15 15.86 10.21 15.62 10.27 15.37C10.32 15.12 10.35 14.87 10.37 14.62C10.39 14.37 10.39 14.12 10.37 13.87C10.37 13.87 10.36 13.76 9.96 13.38C9.8 13.24 9.64 13.1 9.49 12.96C9.33 12.83 9.17 12.69 9.01 12.56C8.84 12.43 8.68 12.3 8.51 12.17C8.35 12.04 8.18 11.92 8.01 11.79L7.79 11.62L7.75 11.59L7.6 11.78L7.57 11.82L7.4 12.04L7.24 12.25L6.87 12.72L5.69 14.25C5.56 14.41 5.37 14.52 5.16 14.55C4.94 14.58 4.73 14.52 4.56 14.39C4.4 14.26 4.29 14.07 4.26 13.86C4.23 13.65 4.29 13.43 4.42 13.27L5.6 11.74L5.97 11.26L6.11 11.08L6.28 10.86L6.33 10.79L6.45 10.64L6.42 10.61L6.19 10.43C6.03 10.31 5.88 10.19 5.72 10.07C5.57 9.95 5.42 9.82 5.27 9.69C5.12 9.56 4.97 9.43 4.82 9.3C4.68 9.17 4.53 9.03 4.39 8.89C3.21 7.72 3.07 6.98 3.49 6.23C3.56 6.1 3.64 5.97 3.72 5.84C3.8 5.71 3.88 5.59 3.97 5.46C4.06 5.34 4.15 5.22 4.25 5.1C4.34 4.99 4.44 4.87 4.55 4.76C4.77 4.55 5 4.34 5.24 4.15C5.48 3.96 5.73 3.78 5.99 3.61C6.24 3.44 6.51 3.28 6.78 3.14C7.06 3 7.34 2.87 7.62 2.75C8.12 2.53 8.68 2.3 9.31 2.08C9.51 2.02 9.71 1.97 9.91 1.92C10.12 1.87 10.32 1.82 10.52 1.79C10.73 1.75 10.93 1.71 11.14 1.68C11.34 1.66 11.55 1.63 11.76 1.62C12.08 1.62 12.3 1.68 12.29 1.87C12.29 1.87 12.61 1.85 13.11 1.85C13.62 1.83 14.12 1.85 14.62 1.88C15.12 1.92 15.62 1.99 16.12 2.08C16.61 2.17 17.1 2.29 17.58 2.43C18.06 2.57 18.54 2.74 19 2.93C19.06 2.96 19.12 2.98 19.17 3.01C19.23 3.04 19.28 3.08 19.33 3.11C19.38 3.15 19.43 3.19 19.48 3.23C19.52 3.28 19.56 3.32 19.6 3.37L18.19 3.99C18.14 4.01 18.09 4.05 18.06 4.1C18.03 4.15 18.02 4.2 18.02 4.26C18.02 4.32 18.04 4.37 18.08 4.42C18.11 4.46 18.16 4.5 18.21 4.52C18.6 4.65 19 4.78 19.39 4.91C19.79 5.03 20.18 5.14 20.59 5.24C20.99 5.35 21.39 5.44 21.79 5.53C22.2 5.62 22.6 5.69 23.01 5.76L23.08 5.76C23.98 5.72 25.87 3.85 26.6 3.1C26.9 3 27.21 2.91 27.52 2.84C27.83 2.77 28.14 2.71 28.45 2.66C28.77 2.61 29.09 2.58 29.4 2.56C29.72 2.55 30.04 2.54 30.36 2.55C30.69 2.55 31.05 2.56 31.42 2.58C31.47 2.58 32.98 2.62 23.67 7.09ZM16.09 11.85L17.85 10.28C17.97 10.18 18.05 10.04 18.06 9.89C18.07 9.74 18.02 9.58 17.91 9.47C17.81 9.35 17.67 9.29 17.51 9.28C17.36 9.27 17.21 9.33 17.1 9.44L15.11 11.2L16.09 11.85ZM13.4 10.07L14.38 10.72L16.15 9.15C16.26 9.05 16.32 8.91 16.33 8.76C16.33 8.61 16.28 8.47 16.18 8.36C16.08 8.25 15.95 8.18 15.8 8.17C15.65 8.16 15.51 8.2 15.39 8.3L13.4 10.07ZM19.56 11.42C19.67 11.32 19.74 11.18 19.75 11.03C19.76 10.88 19.7 10.73 19.6 10.62C19.5 10.5 19.36 10.44 19.21 10.43C19.06 10.42 18.91 10.47 18.8 10.57L16.82 12.33L17.81 12.98L19.56 11.42L19.56 11.42Z" />
				<path id="Path_41" class="shp0" d="M23.01 5.48L23.01 5.48L23.05 5.2C23.12 5.18 23.19 5.16 23.27 5.13C23.34 5.11 23.41 5.08 23.47 5.05C23.54 5.01 23.61 4.97 23.67 4.93C23.73 4.89 23.79 4.85 23.85 4.8C24.12 4.6 24.43 4.35 24.75 4.08L24.76 4.07L24.95 3.9C24.95 3.9 24.94 3.9 24.93 3.9C24.92 3.91 24.92 3.91 24.91 3.91C24.9 3.91 24.9 3.91 24.89 3.91C24.88 3.91 24.88 3.92 24.87 3.92C24.83 3.92 24.79 3.92 24.75 3.93C24.71 3.93 24.67 3.93 24.63 3.93C24.59 3.94 24.55 3.94 24.51 3.94C24.46 3.94 24.42 3.94 24.38 3.94L24.38 3.94C23.44 3.94 21.57 3.83 20.65 3.77L20.28 3.74L20.2 3.74L19.99 3.83L19.1 4.22C19.53 4.35 20.04 4.51 20.56 4.66L20.96 4.77C21.37 4.88 21.77 4.99 22.12 5.07C22.18 5.08 22.24 5.1 22.29 5.11C22.35 5.12 22.41 5.13 22.46 5.14C22.52 5.15 22.58 5.16 22.63 5.17C22.69 5.17 22.75 5.18 22.81 5.19C22.88 5.2 22.96 5.21 23.01 5.21L23.01 5.49L23.01 5.48Z" />
			</g>
		</g>
	</g>
</svg>